<svg xmlns="http://www.w3.org/2000/svg" version="1.1" xmlns:xlink="http://www.w3.org/1999/xlink" xmlns:svgjs="http://svgjs.dev/svgjs" width="128" height="128" viewBox="0 0 128 128"><g transform="matrix(0.8046875,0,0,0.8046875,12.411840748212605,12.814873242367192)"><svg viewBox="0 0 98 98" data-background-color="#ffffff" preserveAspectRatio="xMidYMid meet" height="127" width="128" xmlns="http://www.w3.org/2000/svg" xmlns:xlink="http://www.w3.org/1999/xlink"><g id="tight-bounds" transform="matrix(1,0,0,1,0.0838796764579115,0.0838796764579115)"><svg viewBox="0 0 97.83224064708416 97.83224064708416" height="97.83224064708416" width="97.83224064708416"><g><svg></svg></g><g><svg viewBox="0 0 97.83224064708416 97.83224064708416" height="97.83224064708416" width="97.83224064708416"><g><path d="M0 48.916c0-27.016 21.9-48.916 48.916-48.916 27.016 0 48.916 21.9 48.916 48.916 0 27.016-21.9 48.916-48.916 48.916-27.016 0-48.916-21.9-48.916-48.916zM48.916 93.244c24.481 0 44.328-19.846 44.328-44.328 0-24.481-19.846-44.328-44.328-44.327-24.481 0-44.328 19.846-44.327 44.327 0 24.481 19.846 44.328 44.327 44.328z" data-fill-palette-color="tertiary" fill="#753a06" stroke="transparent"></path><ellipse rx="46.9594755106004" ry="46.9594755106004" cx="48.91612032354208" cy="48.91612032354208" fill="#753a06" stroke="transparent" stroke-width="0" fill-opacity="1" data-fill-palette-color="tertiary"></ellipse></g><g transform="matrix(1,0,0,1,26.099096029539265,23.475393915029343)"><svg viewBox="0 0 45.63404858800563 50.881452817025476" height="50.881452817025476" width="45.63404858800563"><g><svg viewBox="0 0 45.63404858800563 50.881452817025476" height="50.881452817025476" width="45.63404858800563"><g><svg viewBox="0 0 45.63404858800563 50.881452817025476" height="50.881452817025476" width="45.63404858800563"><g id="textblocktransform"><svg viewBox="0 0 45.63404858800563 50.881452817025476" height="50.881452817025476" width="45.63404858800563" id="textblock"><g><svg viewBox="0 0 45.63404858800563 50.881452817025476" height="50.881452817025476" width="45.63404858800563"><g><svg viewBox="0 0 45.63404858800563 50.881452817025476" height="50.881452817025476" width="45.63404858800563"><g><svg xmlns="http://www.w3.org/2000/svg" xmlns:xlink="http://www.w3.org/1999/xlink" version="1.1" x="0" y="0" viewBox="5.156999999999999 0 89.687 100" enable-background="new 0 0 100 100" xml:space="preserve" height="50.881452817025476" width="45.63404858800563" class="icon-icon-0" data-fill-palette-color="quaternary" id="icon-0"><g fill="#ffffff" data-fill-palette-color="quaternary"><g fill="#ffffff" data-fill-palette-color="quaternary"><g fill="#ffffff" data-fill-palette-color="quaternary"><path d="M94.844 54.281l-5.167-3.919L63.912 69.896l-9.258-7.019 25.767-19.534-5.164-3.917L49.494 58.965 27.759 42.488l-5.169 3.915 21.739 16.479L32.06 72.186 10.322 55.703l-5.165 3.921L58.414 100l5.163-3.919-11.937-9.048 12.271-9.305 11.936 9.049 5.166-3.916-11.936-9.049L94.844 54.281zM46.478 83.116l-9.256-7.019 12.268-9.303 9.257 7.018L46.478 83.116z" fill="#ffffff" data-fill-palette-color="quaternary"></path></g><path d="M44.408 34.908l6.053 16.474 6.055-16.477c6.945-2.49 11.928-9.113 11.928-16.92C68.443 8.053 60.391 0 50.461 0c-9.935 0-17.988 8.053-17.988 17.985C32.473 25.793 37.455 32.419 44.408 34.908zM50.171 7.516l3.612 3.678V9.32h2.808v4.737l3.607 3.682h-2.407v8.723h-6.215V21.25h-2.809v5.212h-6.215v-8.723h-2.407L50.171 7.516z" fill="#ffffff" data-fill-palette-color="quaternary"></path></g></g></svg></g></svg></g></svg></g></svg></g></svg></g><g></g></svg></g></svg></g></svg></g><defs></defs></svg><rect width="97.83224064708416" height="97.83224064708416" fill="none" stroke="none" visibility="hidden"></rect></g></svg></g></svg>