<svg xmlns="http://www.w3.org/2000/svg" version="1.1" xmlns:xlink="http://www.w3.org/1999/xlink" xmlns:svgjs="http://svgjs.dev/svgjs" width="2000" height="1999" viewBox="0 0 2000 1999"><g transform="matrix(1,0,0,1,-0.431486880466764,-0.4312711370263287)"><svg viewBox="0 0 343 343" data-background-color="#ffffff" preserveAspectRatio="xMidYMid meet" height="1999" width="2000" xmlns="http://www.w3.org/2000/svg" xmlns:xlink="http://www.w3.org/1999/xlink"><g id="tight-bounds" transform="matrix(1,0,0,1,0.0740000000000407,0.07400000000001228)"><svg viewBox="0 0 342.85155851775386 342.85155851775386" height="342.85155851775386" width="342.85155851775386"><g><svg></svg></g><g><svg viewBox="0 0 342.85155851775386 342.85155851775386" height="342.85155851775386" width="342.85155851775386"><g><path d="M0 171.426c0-94.676 76.75-171.426 171.426-171.426 94.676 0 171.426 76.75 171.426 171.426 0 94.676-76.75 171.426-171.426 171.426-94.676 0-171.426-76.75-171.426-171.426zM171.426 338.124c92.065 0 166.699-74.634 166.698-166.698 0-92.065-74.634-166.699-166.698-166.699-92.065 0-166.699 74.634-166.699 166.699 0 92.065 74.634 166.699 166.699 166.698z" data-fill-palette-color="tertiary" fill="#753a06" stroke="transparent"></path><ellipse rx="164.56874808852186" ry="164.56874808852186" cx="171.42577925887693" cy="171.42577925887693" fill="#753a06" stroke="transparent" stroke-width="0" fill-opacity="1" data-fill-palette-color="tertiary"></ellipse></g><g transform="matrix(1,0,0,1,64.84655864529837,84.33666506330965)"><svg viewBox="0 0 213.1584412271571 174.17822839113455" height="174.17822839113455" width="213.1584412271571"><g><svg viewBox="0 0 213.1584412271571 174.17822839113455" height="174.17822839113455" width="213.1584412271571"><g><svg viewBox="0 0 213.1584412271571 174.17822839113455" height="174.17822839113455" width="213.1584412271571"><g transform="matrix(1,0,0,1,0,121.76062988936546)"><svg viewBox="0 0 213.1584412271571 52.417598501769106" height="52.417598501769106" width="213.1584412271571"><g id="textblocktransform"><svg viewBox="0 0 213.1584412271571 52.417598501769106" height="52.417598501769106" width="213.1584412271571" id="textblock"><g><svg viewBox="0 0 213.1584412271571 52.417598501769106" height="52.417598501769106" width="213.1584412271571"><g transform="matrix(1,0,0,1,0,0)"><svg width="213.1584412271571" viewBox="2.65 -40.25 164.98 40.58" height="52.417598501769106" data-palette-color="#ffffff"><path d="M5.95 0L2.65 0 2.65-40 5.95-40 5.95 0ZM14.65 0L11.32 0 11.32-30 14.65-30 14.65 0ZM24.5 0L21.2 0 21.2-24.63Q21.17-26.3 20.56-27.03 19.95-27.75 18.6-27.75L18.6-27.75Q18.12-27.75 17.69-27.64 17.25-27.53 16.82-27.33L16.82-27.33 16.82-29.28Q17.4-29.8 18.1-30.08 18.8-30.35 19.77-30.35L19.77-30.35Q22.12-30.35 23.3-28.98 24.47-27.6 24.5-24.4L24.5-24.4 24.5 0ZM34.97-2.53L34.97 0.33Q32.07 0.13 30.82-1.41 29.57-2.95 29.49-6.2L29.49-6.2Q29.42-9.73 29.39-13.15 29.37-16.57 29.37-19.98 29.37-23.38 29.39-26.81 29.42-30.25 29.49-33.77L29.49-33.77Q29.54-36.77 30.83-38.41 32.12-40.05 34.97-40.25L34.97-40.25 34.97-37.4Q33.87-37.23 33.37-36.49 32.87-35.75 32.82-34.25L32.82-34.25Q32.74-30.55 32.71-27.01 32.67-23.48 32.67-19.99 32.67-16.5 32.71-12.96 32.74-9.43 32.82-5.7L32.82-5.7Q32.87-4.25 33.36-3.5 33.84-2.75 34.97-2.53L34.97-2.53ZM37.17 0.33L37.17 0.33 37.17-2.55Q38.32-2.75 38.84-3.51 39.37-4.28 39.39-5.7L39.39-5.7Q39.42-7.08 39.42-8.58 39.42-10.08 39.39-11.58 39.37-13.08 39.34-14.43L39.34-14.43 42.67-14.43Q42.74-12.3 42.76-10.31 42.77-8.33 42.72-6.2L42.72-6.2Q42.59-3.03 41.31-1.48 40.02 0.08 37.17 0.33ZM42.47-26.1L39.17-26.1Q39.2-27.38 39.21-28.78 39.22-30.18 39.22-31.59 39.22-33 39.2-34.25L39.2-34.25Q39.17-35.65 38.7-36.4 38.22-37.15 37.17-37.38L37.17-37.38 37.17-40.25Q39.89-40 41.14-38.46 42.39-36.93 42.52-33.75L42.52-33.75Q42.55-32.8 42.55-31.36 42.55-29.93 42.52-28.49 42.49-27.05 42.47-26.1L42.47-26.1ZM49.02 0L45.62 0 49.89-40 56.34-40 56.67-37 52.39-37 51.32-22.93 50.47-14.6 54.44-14.6 53.64-11.6 50.22-11.6 49.02 0ZM60.52 0L57.14 0 54.89-22.98 53.97-35.48 56.77-35.48 60.52 0ZM77.91 0L74.61 0 74.61-40 77.91-40 77.91 0ZM82.01-18.65L76.56-18.65 76.56-21.63 82.81-21.63 82.01-18.65ZM87.61 0L84.31 0 84.31-40 87.61-40 87.61 0ZM92.66-6.15L92.66-6.15Q92.59-8.18 92.55-10.41 92.51-12.65 92.51-14.96 92.51-17.28 92.55-19.53 92.59-21.78 92.66-23.85L92.66-23.85Q92.79-27.05 93.98-28.56 95.19-30.08 98.04-30.3L98.04-30.3 98.04-27.6Q96.96-27.4 96.48-26.69 96.01-25.98 95.96-24.53L95.96-24.53Q95.89-21.88 95.85-19.55 95.81-17.23 95.81-14.99 95.81-12.75 95.85-10.43 95.89-8.1 95.96-5.45L95.96-5.45Q96.01-4.03 96.5-3.31 96.98-2.6 98.04-2.4L98.04-2.4 98.04 0.3Q95.19 0.08 93.98-1.44 92.79-2.95 92.66-6.15ZM100.24 0.3L100.24 0.3 100.24-2.4Q101.31-2.6 101.79-3.31 102.26-4.03 102.31-5.45L102.31-5.45Q102.39-8.13 102.44-10.45 102.49-12.78 102.49-15 102.49-17.23 102.44-19.55 102.39-21.88 102.31-24.53L102.31-24.53Q102.26-26 101.8-26.71 101.34-27.43 100.24-27.6L100.24-27.6 100.24-30.3Q102.16-30.15 103.31-29.43 104.46-28.7 105-27.34 105.54-25.98 105.64-23.85L105.64-23.85Q105.69-21.83 105.72-19.58 105.76-17.32 105.76-15.03 105.76-12.73 105.72-10.46 105.69-8.2 105.64-6.15L105.64-6.15Q105.54-4.03 105-2.65 104.46-1.28 103.31-0.56 102.16 0.15 100.24 0.3ZM114.06 0L110.73 0 110.73-30 114.06-30 114.06 0ZM133.66 0L130.33 0 130.31-24.63Q130.28-26.3 129.68-27.03 129.08-27.75 127.76-27.75L127.76-27.75Q126.78-27.75 126.06-27.4L126.06-27.4 126.06-29.45Q126.61-29.88 127.32-30.11 128.03-30.35 128.91-30.35L128.91-30.35Q131.26-30.35 132.42-28.98 133.58-27.6 133.63-24.4L133.63-24.4 133.66 0ZM123.91 0L120.61 0 120.56-24.63Q120.53-26.3 119.95-27.03 119.36-27.75 118.01-27.75L118.01-27.75Q117.51-27.75 117.07-27.68 116.63-27.6 116.23-27.4L116.23-27.4 116.23-29.38Q116.78-29.85 117.48-30.1 118.18-30.35 119.18-30.35L119.18-30.35Q121.53-30.35 122.68-28.98 123.83-27.6 123.88-24.4L123.88-24.4 123.91 0ZM138.6-5.75L138.6-5.75Q138.56-7.78 138.53-10.13 138.5-12.48 138.5-14.94 138.5-17.4 138.53-19.78 138.56-22.15 138.6-24.2L138.6-24.2Q138.75-27.2 140-28.64 141.25-30.08 143.93-30.28L143.93-30.28 143.93-27.6Q142.91-27.38 142.43-26.66 141.95-25.95 141.93-24.63L141.93-24.63Q141.88-21.95 141.85-19.61 141.83-17.28 141.83-15.05 141.83-12.83 141.85-10.49 141.88-8.15 141.93-5.45L141.93-5.45Q141.95-3.98 142.42-3.29 142.88-2.6 143.93-2.4L143.93-2.4 143.93 0.3Q141.18 0.08 139.95-1.35 138.73-2.78 138.6-5.75ZM146.13 0.3L146.13 0.3 146.13-2.4Q147.1-2.6 147.56-3.3 148-4 148.08-5.45L148.08-5.45Q148.13-6.4 148.12-7.6 148.1-8.8 148.03-10.3L148.03-10.3 151.28-10.3Q151.35-9.18 151.37-7.95 151.38-6.73 151.33-5.75L151.33-5.75Q151.18-2.78 150-1.34 148.83 0.1 146.13 0.3ZM151.28-14.3L143.68-14.3 143.68-16.78 148.08-16.78Q148.13-18.53 148.13-20.08 148.13-21.63 148.12-22.79 148.1-23.95 148.08-24.63L148.08-24.63Q147.98-25.95 147.53-26.66 147.08-27.38 146.13-27.6L146.13-27.6 146.13-30.3Q148.78-30.08 149.98-28.68 151.18-27.28 151.33-24.3L151.33-24.3Q151.35-23.55 151.38-22.05 151.41-20.55 151.39-18.57 151.38-16.6 151.28-14.3L151.28-14.3ZM155.33-5.75L155.33-5.75Q155.3-6.73 155.3-7.95 155.3-9.18 155.38-10.3L155.38-10.3 158.35-10.3Q158.3-8.83 158.3-7.63 158.3-6.43 158.33-5.45L158.33-5.45Q158.35-4 158.78-3.3 159.2-2.6 160.2-2.4L160.2-2.4 160.2 0.3Q157.6 0.08 156.51-1.35 155.43-2.78 155.33-5.75ZM162.38 0.3L162.38 0.3 162.38-2.38Q163.48-2.58 163.95-3.26 164.43-3.95 164.45-5.45L164.45-5.45Q164.48-6.18 164.49-6.74 164.5-7.3 164.51-7.85 164.53-8.4 164.5-9.05L164.5-9.05Q164.45-10.93 164.04-11.9 163.63-12.88 162.35-13.3L162.35-13.3 160-14.1Q158.28-14.68 157.25-15.54 156.23-16.4 155.79-17.79 155.35-19.18 155.28-21.38L155.28-21.38Q155.25-22.15 155.28-22.8 155.3-23.45 155.33-24.2L155.33-24.2Q155.35-27.2 156.47-28.64 157.58-30.08 160.4-30.3L160.4-30.3 160.4-27.6Q159.38-27.43 158.99-26.75 158.6-26.08 158.58-24.63L158.58-24.63Q158.55-23.75 158.53-23.13 158.5-22.5 158.53-21.6L158.53-21.6Q158.55-19.73 158.89-18.57 159.23-17.43 160.68-16.93L160.68-16.93 162.9-16.23Q165.3-15.5 166.47-13.94 167.63-12.38 167.63-9.2L167.63-9.2Q167.63-8.38 167.62-7.44 167.6-6.5 167.55-5.68L167.55-5.68Q167.48-2.73 166.31-1.31 165.15 0.1 162.38 0.3ZM167.38-19.78L164.33-19.78Q164.35-20.63 164.37-21.5 164.38-22.38 164.37-23.2 164.35-24.03 164.33-24.63L164.33-24.63Q164.3-26.05 163.91-26.74 163.53-27.43 162.58-27.6L162.58-27.6 162.58-30.3Q165.2-30.08 166.26-28.66 167.33-27.25 167.43-24.3L167.43-24.3Q167.43-23.68 167.43-22.91 167.43-22.15 167.43-21.34 167.43-20.53 167.38-19.78L167.38-19.78Z" opacity="1" transform="matrix(1,0,0,1,0,0)" fill="#ffffff" class="wordmark-text-0" data-fill-palette-color="quaternary" id="text-0"></path></svg></g></svg></g></svg></g></svg></g><g transform="matrix(1,0,0,1,57.52666804151779,0)"><svg viewBox="0 0 98.10510514412154 109.38609290546182" height="109.38609290546182" width="98.10510514412154"><g><svg xmlns="http://www.w3.org/2000/svg" xmlns:xlink="http://www.w3.org/1999/xlink" version="1.1" x="0" y="0" viewBox="5.156999999999999 0 89.687 100" enable-background="new 0 0 100 100" xml:space="preserve" height="109.38609290546182" width="98.10510514412154" class="icon-icon-0" data-fill-palette-color="quaternary" id="icon-0"><g fill="#ffffff" data-fill-palette-color="quaternary"><g fill="#ffffff" data-fill-palette-color="quaternary"><g fill="#ffffff" data-fill-palette-color="quaternary"><path d="M94.844 54.281l-5.167-3.919L63.912 69.896l-9.258-7.019 25.767-19.534-5.164-3.917L49.494 58.965 27.759 42.488l-5.169 3.915 21.739 16.479L32.06 72.186 10.322 55.703l-5.165 3.921L58.414 100l5.163-3.919-11.937-9.048 12.271-9.305 11.936 9.049 5.166-3.916-11.936-9.049L94.844 54.281zM46.478 83.116l-9.256-7.019 12.268-9.303 9.257 7.018L46.478 83.116z" fill="#ffffff" data-fill-palette-color="quaternary"></path></g><path d="M44.408 34.908l6.053 16.474 6.055-16.477c6.945-2.49 11.928-9.113 11.928-16.92C68.443 8.053 60.391 0 50.461 0c-9.935 0-17.988 8.053-17.988 17.985C32.473 25.793 37.455 32.419 44.408 34.908zM50.171 7.516l3.612 3.678V9.32h2.808v4.737l3.607 3.682h-2.407v8.723h-6.215V21.25h-2.809v5.212h-6.215v-8.723h-2.407L50.171 7.516z" fill="#ffffff" data-fill-palette-color="quaternary"></path></g></g></svg></g></svg></g><g></g></svg></g></svg></g></svg></g></svg></g><defs></defs></svg><rect width="342.85155851775386" height="342.85155851775386" fill="none" stroke="none" visibility="hidden"></rect></g></svg></g></svg>